<?xml version="1.0" encoding="utf-8"?>
<!-- Generator: Adobe Illustrator 28.1.0, SVG Export Plug-In . SVG Version: 6.00 Build 0)  -->
<svg version="1.1" id="Слой_1" xmlns="http://www.w3.org/2000/svg" xmlns:xlink="http://www.w3.org/1999/xlink" x="0px" y="0px"
	 width="500.9px" height="250.7px" viewBox="0 0 500.9 250.7" style="enable-background:new 0 0 500.9 250.7;" xml:space="preserve"
	>
<style type="text/css">
	.st0{fill:#0047FF;stroke:#0047FF;stroke-width:0.477;}
	.st1{fill:#0047FF;}
	.st2{fill:#FFFFFF;filter:url(#Adobe_OpacityMaskFilter);}
	.st3{mask:url(#a_00000075151106422226105300000016040448486838184376_);fill:none;stroke:#0047FF;stroke-width:0.867;}
</style>
<g>
	<path class="st0" d="M210.4,39.5l-0.9,1.3h5.3l0.2-0.3L231,18.8h8v-2.5h-6.2l4.8-6.5l0.9-1.3h-5.3l-0.2,0.3l-5.4,7.4h-7.1v2.5h5.3
		L210.4,39.5L210.4,39.5z M259.9,37.8c0.7-0.5,1.4-1.1,2.1-1.8c0.2,1.5,0.9,2.7,2,3.6c1.3,1.1,3.2,1.6,5.3,1.6
		c7.2,0,13.5-4.7,21.4-11.9l0.3-0.2v-3.4l-1.3,1.2c-4.1,3.8-7.5,6.7-10.7,8.6c-3.2,2-6,2.9-8.8,2.9c-1.1,0-1.8-0.3-2.2-0.8
		c-0.5-0.5-0.8-1.4-0.8-2.6c0-1.3,0.5-3,1.3-4.7c4.1-0.3,8.6-2,12-4.2c1.8-1.1,3.3-2.4,4.5-3.6c1.1-1.2,1.9-2.6,1.9-3.9
		c0-0.9-0.5-1.8-1.2-2.4c-0.8-0.5-1.8-0.8-3-0.8c-2.3,0-4.7,0.9-7,2.2c-2.3,1.3-4.6,3.2-6.6,5.2c-1.9,1.9-3.6,4-4.9,6.3
		c-0.6,0.9-1,1.9-1.4,2.9c-1.4,1.3-2.6,2.4-3.7,3.4c-2.5,2.1-4.4,3.1-6.1,3.1c-0.7,0-1.2-0.2-1.4-0.5c-0.3-0.3-0.4-0.7-0.4-1.3
		c0-0.9,0.3-1.8,0.9-2.7s1.2-1.7,1.9-2.5v0l2.5-2.8c2-2.2,3.5-3.9,4.4-5.2c0.9-1.3,1.4-2.5,1.4-3.7c0-1.4-0.7-2.6-1.8-3.3
		c-1.1-0.7-2.5-1.1-4-1.1c-2.7,0-5.4,1.2-8,2.9c-0.5,0.3-1,0.7-1.5,1.1l13.2-18.1l0.9-1.3h-5.4l-0.2,0.3l-28.4,39l-0.9,1.3h5.4
		l0.2-0.3l2.1-2.9v0c2.8-4,5.4-7.1,9.2-11v0c1.9-2,4.2-4.1,6.4-5.7c2.3-1.6,4.4-2.6,6.2-2.6c0.7,0,1.1,0.2,1.3,0.4
		c0.2,0.3,0.4,0.7,0.4,1.1c0,0.8-0.4,1.8-1.1,2.9c-0.7,1.1-1.6,2.2-2.6,3.2l0,0l-3.8,4.2c-0.8,0.9-1.6,1.8-2.2,2.8
		c-0.7,1.1-1.2,2.3-1.2,3.6c0,1.6,0.8,2.8,1.9,3.6c1.1,0.8,2.6,1.2,4,1.2C254.8,41.3,257.3,39.9,259.9,37.8L259.9,37.8z M278.2,24.3
		c-2.3,1.6-5.3,2.9-8.4,3.4c1.4-2.3,3.2-4.3,5.2-6.1c2.4-2.1,4.8-3.3,6.8-3.3c0.3,0,0.5,0.1,0.5,0.2c0.1,0.1,0.1,0.2,0.1,0.3
		c0,0.7-0.3,1.6-1.1,2.6C280.6,22.3,279.5,23.3,278.2,24.3L278.2,24.3z"/>
	<path class="st1" d="M7.7,144.3h26.7c13.9,0,25.2-6.3,25.2-17.3c0-8.9-6.8-14.8-17.2-16.6c9.4-2,15.6-7.4,15.6-15.1
		c0-10-10.2-16-22.5-16H7.7v1.3c7.6,0.5,8.5,0.5,8.5,6.9v48.6c0,6.3-0.9,6.4-8.5,6.9C7.7,143,7.7,144.3,7.7,144.3z M21.9,109.7V80.9
		h12.9c11.3,0,16.7,5.5,16.7,14.4c0,9.1-5.5,14.2-16.5,14.3L21.9,109.7L21.9,109.7z M21.9,142.8v-31.6h13c12.3,0,18.2,5.8,18.2,15.7
		s-6.1,15.7-19,15.8L21.9,142.8L21.9,142.8z M72.4,144.3h22.7V143c-7.6-0.5-8.5-0.5-8.5-6.9v-24.9h11.8c8.9,0,13.4,4.4,14,13.1
		c0.3,4.1,0,8.5,0.2,11.8c0.5,7,4.9,9,9.1,9c4.3,0,7.8-2.4,9.4-8.3l-1.5-0.4c-1.6,5-4,6.6-6.3,6.6c-2.7,0-4.5-1.5-4.8-7.3
		c-0.2-3.4-0.2-7.8-0.6-12c-0.7-7.3-4.2-11.8-12.5-12.8v-0.2c9.8-1.5,16.7-7,16.7-15.4c0-10-9.5-16-21.9-16H72.4v1.3
		c7.6,0.5,8.5,0.5,8.5,6.9v48.6c0,6.3-0.9,6.4-8.5,6.9C72.4,143,72.4,144.3,72.4,144.3z M86.6,80.9h11.5c11.3,0,17.6,5.3,17.6,14.4
		s-6.5,14.2-17.4,14.3l-11.7,0.1V80.9L86.6,80.9z M173.3,145.2c19.9,0,35.4-14.1,35.4-33.5c0-19.4-15.5-33.5-35.4-33.5
		s-35.4,14.1-35.4,33.5C137.9,131.1,153.4,145.2,173.3,145.2L173.3,145.2z M173.3,143.7c-18.4,0-28.9-14.1-28.9-32
		c0-17.9,10.5-32,28.9-32c18.4,0,28.9,14.1,28.9,32C202.3,129.5,191.7,143.7,173.3,143.7L173.3,143.7z M212.1,80.6
		c6.4,0.3,7,0.8,9.1,6.6l18.9,53.3c1.1,3.1,3.1,4.6,5.8,4.6s4.5-1.7,5.5-4.5l10.2-30l10.5,29.9c1.1,3.1,3.1,4.6,5.8,4.6
		c2.8,0,4.5-1.7,5.5-4.5l16.5-48.4c3.8-11,4.8-11.4,11.4-11.7v-1.3h-17.6v1.3c7.7,0.4,7.8,0.8,3.8,12.6l-15.9,47.1
		c-0.4,1.2-1,2-1.9,2c-0.9,0-1.5-0.7-1.9-2.1l-12.7-36.5l3.8-11.4c3.7-11,4.8-11.4,11.4-11.7v-1.3h-36v1.3c6.4,0.3,7,0.8,9.1,6.6
		l7.2,20.4l-11.1,32.6c-0.4,1.2-1,2-1.9,2c-0.9,0-1.5-0.7-1.9-2.1L227,86.9c-2-5.7-0.1-6,6.5-6.3v-1.3h-21.5L212.1,80.6L212.1,80.6z
		 M259.1,86.9c-1.8-5.2-0.2-6.2,4.5-6.2c5.1,0,6.5,1.3,4,8.6l-3.8,11.3L259.1,86.9z M318.3,123.3h-1.4l0.5,20.2h1.4
		c0.1-2.8,0.8-3.4,1.8-3.4c3.1,0,6.8,5,17.5,5c11.1,0,21.5-6.6,21.5-17.3c0-10.2-8.2-15.2-16.9-19.3l-6.5-3
		c-8.3-3.8-12.9-8.1-12.9-14.7c0-6.6,5.5-11.2,13.9-11.2c9.1,0,17.3,6.1,19,16.8l1.3-0.1L357,79.6h-1.2c-0.4,3-1.1,3.3-2.2,3.3
		c-0.7,0-1.8-0.5-3.5-1.3c-2.9-1.5-6.9-3.5-12.8-3.5c-10.5,0-18.6,6.3-18.6,15.1c0,8.3,5.5,12.9,14.9,17.5l6.1,3
		c7.6,3.7,14.9,8,14.9,16.7c0,8.5-7.8,13.3-16.7,13.3C326.6,143.7,318.8,134.9,318.3,123.3z M371.6,144.3h49.3l2.6-19.3h-1.4
		c-3.6,17-6.5,17.7-28.9,17.7h-1c-5.9,0-6.5-1.4-6.5-6.6v-25.6h23.7V109h-23.7V80.9h17.1c10.3,0,12.9,4.2,15.5,16.2h1.4l-2.4-17.7
		h-45.8v1.3c7.6,0.5,8.5,0.5,8.5,6.9v48.6c0,6.3-0.9,6.4-8.5,6.9V144.3L371.6,144.3z M434.2,144.3h22.7V143
		c-7.6-0.5-8.5-0.5-8.5-6.9v-24.9h11.8c8.9,0,13.4,4.4,14,13.1c0.3,4.1,0,8.5,0.2,11.8c0.5,7,4.9,9,9.1,9c4.3,0,7.8-2.4,9.4-8.3
		l-1.5-0.4c-1.6,5-4,6.6-6.3,6.6c-2.7,0-4.5-1.5-4.8-7.3c-0.2-3.4-0.2-7.8-0.6-12c-0.7-7.3-4.2-11.8-12.5-12.8v-0.2
		c9.8-1.5,16.7-7,16.7-15.4c0-10-9.5-16-21.9-16h-27.8v1.3c7.6,0.5,8.5,0.5,8.5,6.9v48.6c0,6.3-0.9,6.4-8.5,6.9
		C434.2,143,434.2,144.3,434.2,144.3z M448.4,80.9h11.5c11.3,0,17.6,5.3,17.6,14.4s-6.5,14.2-17.4,14.3l-11.7,0.1V80.9L448.4,80.9z
		 M0.4,216.7c0,19.3,13.7,33.5,33.5,33.5c14.2,0,23.2-6.8,27.7-18.5l-1.5-0.5c-4.2,10.6-11.9,16.7-24.9,16.7
		c-18.4,0-28.3-14.8-28.3-31.2c0-18,9.1-32,26.5-32c14.5,0,25.2,9.2,27.2,19.9h1.3l-0.5-18.9H60c-0.3,2.8-1.3,4-2.8,4
		c-1.3,0-2.3-0.5-3.8-1.3c-3.8-2-10.5-5.2-19.9-5.2C14.7,183.2,0.4,197.1,0.4,216.7L0.4,216.7z M106.5,250.2
		c19.9,0,35.4-14.1,35.4-33.5c0-19.4-15.5-33.5-35.4-33.5s-35.4,14.1-35.4,33.5C71.1,236.1,86.6,250.2,106.5,250.2z M106.5,248.7
		c-18.4,0-28.9-14.1-28.9-32c0-17.9,10.5-32,28.9-32c18.4,0,28.9,14.1,28.9,32C135.5,234.6,124.9,248.7,106.5,248.7z M150.6,249.3
		h18.8V248c-7.6-0.5-8.5-0.5-8.5-6.9v-48.7l29.8,56.9h1.2l29.2-60.8v52.6c0,6.3-0.9,6.4-8.5,6.9v1.3h22.7V248
		c-7.6-0.5-8.5-0.5-8.5-6.9v-48.6c0-6.3,0.9-6.4,8.5-6.9v-1.3h-14.2l-27.8,57.8l-30-57.8h-12.7v1.3c7.6,0.5,8.5,0.5,8.5,6.9v48.6
		c0,6.3-0.9,6.4-8.5,6.9V249.3L150.6,249.3z M243.9,249.3h22.7V248c-7.6-0.5-8.5-0.5-8.5-6.9v-24.9h13c12.8,0,22.5-5.8,22.5-15.9
		c0-10-9.6-16-21.9-16h-27.8v1.3c7.6,0.5,8.5,0.5,8.5,6.9v48.6c0,6.3-0.9,6.4-8.5,6.9L243.9,249.3L243.9,249.3z M258.1,185.9h11.6
		c11.3,0,17.5,5.3,17.5,14.4c0,9.1-6.3,14.2-17.2,14.3l-11.8,0.1C258.1,214.7,258.1,185.9,258.1,185.9z M288.2,249.3h17.6V248
		c-7.7-0.4-8.2-0.9-3.8-12.6l3.5-9.3h32.9l6,15.7c1.8,4.9,1,6.1-6.5,6.3v1.3h21.5V248c-6.4-0.3-6.8-0.8-9.1-6.6l-20.9-53.6
		c-1.1-2.7-2.8-4.6-5.8-4.6c-3.8,0-5,3.2-5.5,4.4l-18.6,48.7c-4.2,10.9-4.8,11.4-11.4,11.7L288.2,249.3L288.2,249.3z M306.2,224.4
		l13.9-36.4c0.5-1.2,0.9-1.9,1.8-1.9c1.2,0,1.5,1.1,1.8,2l14,36.4C337.8,224.4,306.2,224.4,306.2,224.4z M363,249.3h18.9V248
		c-7.6-0.5-8.5-0.5-8.5-6.9v-50.5l47.7,58.7h1.8v-56.8c0-6.3,0.9-6.4,8.5-6.9v-1.3h-18.9v1.3c7.6,0.5,8.5,0.5,8.5,6.9V240
		l-45.2-55.6H363v1.3c7.6,0.5,8.5,0.5,8.5,6.9v48.6c0,6.3-0.9,6.4-8.5,6.9L363,249.3L363,249.3z M434.1,185.7c3.5,0.2,6.2,0.8,9,4.7
		l22,30.8v19.9c0,6.3-0.9,6.4-8.5,6.9v1.3h22.7V248c-7.6-0.5-8.5-0.5-8.5-6.9v-20.9l17.4-25.1c6.1-8.7,6.8-9.2,12.3-9.5v-1.3h-16.8
		v1.3c7.7,0.2,8.2,0.9,1.4,10.8L470,218.3l-18.4-25.8c-1.6-2.3-2.6-3.7-2.6-4.7c0-1.4,1.8-1.9,6.7-2.1v-1.3h-21.5L434.1,185.7
		L434.1,185.7z"/>
	<defs>
		<filter id="Adobe_OpacityMaskFilter" filterUnits="userSpaceOnUse" x="0" y="77.7" width="500.9" height="173">
			<feColorMatrix  type="matrix" values="1 0 0 0 0  0 1 0 0 0  0 0 1 0 0  0 0 0 1 0"/>
		</filter>
	</defs>
	
		<mask maskUnits="userSpaceOnUse" x="0" y="77.7" width="500.9" height="173" id="a_00000075151106422226105300000016040448486838184376_">
		<path class="st2" d="M-2.9,74.8h507.1v178.9H-2.9L-2.9,74.8z"/>
		<path d="M7.7,144.3h26.7c13.9,0,25.2-6.3,25.2-17.3c0-8.9-6.8-14.8-17.2-16.6c9.4-2,15.6-7.4,15.6-15.1c0-10-10.2-16-22.5-16H7.7
			v1.3c7.6,0.5,8.5,0.5,8.5,6.9v48.6c0,6.3-0.9,6.4-8.5,6.9C7.7,143,7.7,144.3,7.7,144.3z M21.9,109.7V80.9h12.9
			c11.3,0,16.7,5.5,16.7,14.4c0,9.1-5.5,14.2-16.5,14.3L21.9,109.7L21.9,109.7z M21.9,142.8v-31.6h13c12.3,0,18.2,5.8,18.2,15.7
			s-6.1,15.7-19,15.8L21.9,142.8L21.9,142.8z M72.4,144.3h22.7V143c-7.6-0.5-8.5-0.5-8.5-6.9v-24.9h11.8c8.9,0,13.4,4.4,14,13.1
			c0.3,4.1,0,8.5,0.2,11.8c0.5,7,4.9,9,9.1,9c4.3,0,7.8-2.4,9.4-8.3l-1.5-0.4c-1.6,5-4,6.6-6.3,6.6c-2.7,0-4.5-1.5-4.8-7.3
			c-0.2-3.4-0.2-7.8-0.6-12c-0.7-7.3-4.2-11.8-12.5-12.8v-0.2c9.8-1.5,16.7-7,16.7-15.4c0-10-9.5-16-21.9-16H72.4v1.3
			c7.6,0.5,8.5,0.5,8.5,6.9v48.6c0,6.3-0.9,6.4-8.5,6.9C72.4,143,72.4,144.3,72.4,144.3z M86.6,80.9h11.5c11.3,0,17.6,5.3,17.6,14.4
			s-6.5,14.2-17.4,14.3l-11.7,0.1V80.9L86.6,80.9z M173.3,145.2c19.9,0,35.4-14.1,35.4-33.5c0-19.4-15.5-33.5-35.4-33.5
			s-35.4,14.1-35.4,33.5C137.9,131.1,153.4,145.2,173.3,145.2L173.3,145.2z M173.3,143.7c-18.4,0-28.9-14.1-28.9-32
			c0-17.9,10.5-32,28.9-32c18.4,0,28.9,14.1,28.9,32C202.3,129.5,191.7,143.7,173.3,143.7L173.3,143.7z M212.1,80.6
			c6.4,0.3,7,0.8,9.1,6.6l18.9,53.3c1.1,3.1,3.1,4.6,5.8,4.6s4.5-1.7,5.5-4.5l10.2-30l10.5,29.9c1.1,3.1,3.1,4.6,5.8,4.6
			c2.8,0,4.5-1.7,5.5-4.5l16.5-48.4c3.8-11,4.8-11.4,11.4-11.7v-1.3h-17.6v1.3c7.7,0.4,7.8,0.8,3.8,12.6l-15.9,47.1
			c-0.4,1.2-1,2-1.9,2c-0.9,0-1.5-0.7-1.9-2.1l-12.7-36.5l3.8-11.4c3.7-11,4.8-11.4,11.4-11.7v-1.3h-36v1.3c6.4,0.3,7,0.8,9.1,6.6
			l7.2,20.4l-11.1,32.6c-0.4,1.2-1,2-1.9,2c-0.9,0-1.5-0.7-1.9-2.1L227,86.9c-2-5.7-0.1-6,6.5-6.3v-1.3h-21.5L212.1,80.6L212.1,80.6
			z M259.1,86.9c-1.8-5.2-0.2-6.2,4.5-6.2c5.1,0,6.5,1.3,4,8.6l-3.8,11.3L259.1,86.9z M318.3,123.3h-1.4l0.5,20.2h1.4
			c0.1-2.8,0.8-3.4,1.8-3.4c3.1,0,6.8,5,17.5,5c11.1,0,21.5-6.6,21.5-17.3c0-10.2-8.2-15.2-16.9-19.3l-6.5-3
			c-8.3-3.8-12.9-8.1-12.9-14.7c0-6.6,5.5-11.2,13.9-11.2c9.1,0,17.3,6.1,19,16.8l1.3-0.1L357,79.6h-1.2c-0.4,3-1.1,3.3-2.2,3.3
			c-0.7,0-1.8-0.5-3.5-1.3c-2.9-1.5-6.9-3.5-12.8-3.5c-10.5,0-18.6,6.3-18.6,15.1c0,8.3,5.5,12.9,14.9,17.5l6.1,3
			c7.6,3.7,14.9,8,14.9,16.7c0,8.5-7.8,13.3-16.7,13.3C326.6,143.7,318.8,134.9,318.3,123.3z M371.6,144.3h49.3l2.6-19.3h-1.4
			c-3.6,17-6.5,17.7-28.9,17.7h-1c-5.9,0-6.5-1.4-6.5-6.6v-25.6h23.7V109h-23.7V80.9h17.1c10.3,0,12.9,4.2,15.5,16.2h1.4l-2.4-17.7
			h-45.8v1.3c7.6,0.5,8.5,0.5,8.5,6.9v48.6c0,6.3-0.9,6.4-8.5,6.9V144.3L371.6,144.3z M434.2,144.3h22.7V143
			c-7.6-0.5-8.5-0.5-8.5-6.9v-24.9h11.8c8.9,0,13.4,4.4,14,13.1c0.3,4.1,0,8.5,0.2,11.8c0.5,7,4.9,9,9.1,9c4.3,0,7.8-2.4,9.4-8.3
			l-1.5-0.4c-1.6,5-4,6.6-6.3,6.6c-2.7,0-4.5-1.5-4.8-7.3c-0.2-3.4-0.2-7.8-0.6-12c-0.7-7.3-4.2-11.8-12.5-12.8v-0.2
			c9.8-1.5,16.7-7,16.7-15.4c0-10-9.5-16-21.9-16h-27.8v1.3c7.6,0.5,8.5,0.5,8.5,6.9v48.6c0,6.3-0.9,6.4-8.5,6.9
			C434.2,143,434.2,144.3,434.2,144.3z M448.4,80.9h11.5c11.3,0,17.6,5.3,17.6,14.4s-6.5,14.2-17.4,14.3l-11.7,0.1V80.9L448.4,80.9z
			 M0.4,216.7c0,19.3,13.7,33.5,33.5,33.5c14.2,0,23.2-6.8,27.7-18.5l-1.5-0.5c-4.2,10.6-11.9,16.7-24.9,16.7
			c-18.4,0-28.3-14.8-28.3-31.2c0-18,9.1-32,26.5-32c14.5,0,25.2,9.2,27.2,19.9h1.3l-0.5-18.9H60c-0.3,2.8-1.3,4-2.8,4
			c-1.3,0-2.3-0.5-3.8-1.3c-3.8-2-10.5-5.2-19.9-5.2C14.7,183.2,0.4,197.1,0.4,216.7L0.4,216.7z M106.5,250.2
			c19.9,0,35.4-14.1,35.4-33.5c0-19.4-15.5-33.5-35.4-33.5s-35.4,14.1-35.4,33.5C71.1,236.1,86.6,250.2,106.5,250.2z M106.5,248.7
			c-18.4,0-28.9-14.1-28.9-32c0-17.9,10.5-32,28.9-32c18.4,0,28.9,14.1,28.9,32C135.5,234.6,124.9,248.7,106.5,248.7z M150.6,249.3
			h18.8V248c-7.6-0.5-8.5-0.5-8.5-6.9v-48.7l29.8,56.9h1.2l29.2-60.8v52.6c0,6.3-0.9,6.4-8.5,6.9v1.3h22.7V248
			c-7.6-0.5-8.5-0.5-8.5-6.9v-48.6c0-6.3,0.9-6.4,8.5-6.9v-1.3h-14.2l-27.8,57.8l-30-57.8h-12.7v1.3c7.6,0.5,8.5,0.5,8.5,6.9v48.6
			c0,6.3-0.9,6.4-8.5,6.9V249.3L150.6,249.3z M243.9,249.3h22.7V248c-7.6-0.5-8.5-0.5-8.5-6.9v-24.9h13c12.8,0,22.5-5.8,22.5-15.9
			c0-10-9.6-16-21.9-16h-27.8v1.3c7.6,0.5,8.5,0.5,8.5,6.9v48.6c0,6.3-0.9,6.4-8.5,6.9L243.9,249.3L243.9,249.3z M258.1,185.9h11.6
			c11.3,0,17.5,5.3,17.5,14.4c0,9.1-6.3,14.2-17.2,14.3l-11.8,0.1C258.1,214.7,258.1,185.9,258.1,185.9z M288.2,249.3h17.6V248
			c-7.7-0.4-8.2-0.9-3.8-12.6l3.5-9.3h32.9l6,15.7c1.8,4.9,1,6.1-6.5,6.3v1.3h21.5V248c-6.4-0.3-6.8-0.8-9.1-6.6l-20.9-53.6
			c-1.1-2.7-2.8-4.6-5.8-4.6c-3.8,0-5,3.2-5.5,4.4l-18.6,48.7c-4.2,10.9-4.8,11.4-11.4,11.7L288.2,249.3L288.2,249.3z M306.2,224.4
			l13.9-36.4c0.5-1.2,0.9-1.9,1.8-1.9c1.2,0,1.5,1.1,1.8,2l14,36.4C337.8,224.4,306.2,224.4,306.2,224.4z M363,249.3h18.9V248
			c-7.6-0.5-8.5-0.5-8.5-6.9v-50.5l47.7,58.7h1.8v-56.8c0-6.3,0.9-6.4,8.5-6.9v-1.3h-18.9v1.3c7.6,0.5,8.5,0.5,8.5,6.9V240
			l-45.2-55.6H363v1.3c7.6,0.5,8.5,0.5,8.5,6.9v48.6c0,6.3-0.9,6.4-8.5,6.9L363,249.3L363,249.3z M434.1,185.7
			c3.5,0.2,6.2,0.8,9,4.7l22,30.8v19.9c0,6.3-0.9,6.4-8.5,6.9v1.3h22.7V248c-7.6-0.5-8.5-0.5-8.5-6.9v-20.9l17.4-25.1
			c6.1-8.7,6.8-9.2,12.3-9.5v-1.3h-16.8v1.3c7.7,0.2,8.2,0.9,1.4,10.8L470,218.3l-18.4-25.8c-1.6-2.3-2.6-3.7-2.6-4.7
			c0-1.4,1.8-1.9,6.7-2.1v-1.3h-21.5L434.1,185.7L434.1,185.7z"/>
	</mask>
	<path class="st3" d="M7.7,144.3h26.7c13.9,0,25.2-6.3,25.2-17.3c0-8.9-6.8-14.8-17.2-16.6c9.4-2,15.6-7.4,15.6-15.1
		c0-10-10.2-16-22.5-16H7.7v1.3c7.6,0.5,8.5,0.5,8.5,6.9v48.6c0,6.3-0.9,6.4-8.5,6.9C7.7,143,7.7,144.3,7.7,144.3z M21.9,109.7V80.9
		h12.9c11.3,0,16.7,5.5,16.7,14.4c0,9.1-5.5,14.2-16.5,14.3L21.9,109.7L21.9,109.7z M21.9,142.8v-31.6h13c12.3,0,18.2,5.8,18.2,15.7
		s-6.1,15.7-19,15.8L21.9,142.8L21.9,142.8z M72.4,144.3h22.7V143c-7.6-0.5-8.5-0.5-8.5-6.9v-24.9h11.8c8.9,0,13.4,4.4,14,13.1
		c0.3,4.1,0,8.5,0.2,11.8c0.5,7,4.9,9,9.1,9c4.3,0,7.8-2.4,9.4-8.3l-1.5-0.4c-1.6,5-4,6.6-6.3,6.6c-2.7,0-4.5-1.5-4.8-7.3
		c-0.2-3.4-0.2-7.8-0.6-12c-0.7-7.3-4.2-11.8-12.5-12.8v-0.2c9.8-1.5,16.7-7,16.7-15.4c0-10-9.5-16-21.9-16H72.4v1.3
		c7.6,0.5,8.5,0.5,8.5,6.9v48.6c0,6.3-0.9,6.4-8.5,6.9C72.4,143,72.4,144.3,72.4,144.3z M86.6,80.9h11.5c11.3,0,17.6,5.3,17.6,14.4
		s-6.5,14.2-17.4,14.3l-11.7,0.1V80.9L86.6,80.9z M173.3,145.2c19.9,0,35.4-14.1,35.4-33.5c0-19.4-15.5-33.5-35.4-33.5
		s-35.4,14.1-35.4,33.5C137.9,131.1,153.4,145.2,173.3,145.2L173.3,145.2z M173.3,143.7c-18.4,0-28.9-14.1-28.9-32
		c0-17.9,10.5-32,28.9-32c18.4,0,28.9,14.1,28.9,32C202.3,129.5,191.7,143.7,173.3,143.7L173.3,143.7z M212.1,80.6
		c6.4,0.3,7,0.8,9.1,6.6l18.9,53.3c1.1,3.1,3.1,4.6,5.8,4.6s4.5-1.7,5.5-4.5l10.2-30l10.5,29.9c1.1,3.1,3.1,4.6,5.8,4.6
		c2.8,0,4.5-1.7,5.5-4.5l16.5-48.4c3.8-11,4.8-11.4,11.4-11.7v-1.3h-17.6v1.3c7.7,0.4,7.8,0.8,3.8,12.6l-15.9,47.1
		c-0.4,1.2-1,2-1.9,2c-0.9,0-1.5-0.7-1.9-2.1l-12.7-36.5l3.8-11.4c3.7-11,4.8-11.4,11.4-11.7v-1.3h-36v1.3c6.4,0.3,7,0.8,9.1,6.6
		l7.2,20.4l-11.1,32.6c-0.4,1.2-1,2-1.9,2c-0.9,0-1.5-0.7-1.9-2.1L227,86.9c-2-5.7-0.1-6,6.5-6.3v-1.3h-21.5L212.1,80.6L212.1,80.6z
		 M259.1,86.9c-1.8-5.2-0.2-6.2,4.5-6.2c5.1,0,6.5,1.3,4,8.6l-3.8,11.3L259.1,86.9z M318.3,123.3h-1.4l0.5,20.2h1.4
		c0.1-2.8,0.8-3.4,1.8-3.4c3.1,0,6.8,5,17.5,5c11.1,0,21.5-6.6,21.5-17.3c0-10.2-8.2-15.2-16.9-19.3l-6.5-3
		c-8.3-3.8-12.9-8.1-12.9-14.7c0-6.6,5.5-11.2,13.9-11.2c9.1,0,17.3,6.1,19,16.8l1.3-0.1L357,79.6h-1.2c-0.4,3-1.1,3.3-2.2,3.3
		c-0.7,0-1.8-0.5-3.5-1.3c-2.9-1.5-6.9-3.5-12.8-3.5c-10.5,0-18.6,6.3-18.6,15.1c0,8.3,5.5,12.9,14.9,17.5l6.1,3
		c7.6,3.7,14.9,8,14.9,16.7c0,8.5-7.8,13.3-16.7,13.3C326.6,143.7,318.8,134.9,318.3,123.3z M371.6,144.3h49.3l2.6-19.3h-1.4
		c-3.6,17-6.5,17.7-28.9,17.7h-1c-5.9,0-6.5-1.4-6.5-6.6v-25.6h23.7V109h-23.7V80.9h17.1c10.3,0,12.9,4.2,15.5,16.2h1.4l-2.4-17.7
		h-45.8v1.3c7.6,0.5,8.5,0.5,8.5,6.9v48.6c0,6.3-0.9,6.4-8.5,6.9V144.3L371.6,144.3z M434.2,144.3h22.7V143
		c-7.6-0.5-8.5-0.5-8.5-6.9v-24.9h11.8c8.9,0,13.4,4.4,14,13.1c0.3,4.1,0,8.5,0.2,11.8c0.5,7,4.9,9,9.1,9c4.3,0,7.8-2.4,9.4-8.3
		l-1.5-0.4c-1.6,5-4,6.6-6.3,6.6c-2.7,0-4.5-1.5-4.8-7.3c-0.2-3.4-0.2-7.8-0.6-12c-0.7-7.3-4.2-11.8-12.5-12.8v-0.2
		c9.8-1.5,16.7-7,16.7-15.4c0-10-9.5-16-21.9-16h-27.8v1.3c7.6,0.5,8.5,0.5,8.5,6.9v48.6c0,6.3-0.9,6.4-8.5,6.9
		C434.2,143,434.2,144.3,434.2,144.3z M448.4,80.9h11.5c11.3,0,17.6,5.3,17.6,14.4s-6.5,14.2-17.4,14.3l-11.7,0.1V80.9L448.4,80.9z
		 M0.4,216.7c0,19.3,13.7,33.5,33.5,33.5c14.2,0,23.2-6.8,27.7-18.5l-1.5-0.5c-4.2,10.6-11.9,16.7-24.9,16.7
		c-18.4,0-28.3-14.8-28.3-31.2c0-18,9.1-32,26.5-32c14.5,0,25.2,9.2,27.2,19.9h1.3l-0.5-18.9H60c-0.3,2.8-1.3,4-2.8,4
		c-1.3,0-2.3-0.5-3.8-1.3c-3.8-2-10.5-5.2-19.9-5.2C14.7,183.2,0.4,197.1,0.4,216.7L0.4,216.7z M106.5,250.2
		c19.9,0,35.4-14.1,35.4-33.5c0-19.4-15.5-33.5-35.4-33.5s-35.4,14.1-35.4,33.5C71.1,236.1,86.6,250.2,106.5,250.2z M106.5,248.7
		c-18.4,0-28.9-14.1-28.9-32c0-17.9,10.5-32,28.9-32c18.4,0,28.9,14.1,28.9,32C135.5,234.6,124.9,248.7,106.5,248.7z M150.6,249.3
		h18.8V248c-7.6-0.5-8.5-0.5-8.5-6.9v-48.7l29.8,56.9h1.2l29.2-60.8v52.6c0,6.3-0.9,6.4-8.5,6.9v1.3h22.7V248
		c-7.6-0.5-8.5-0.5-8.5-6.9v-48.6c0-6.3,0.9-6.4,8.5-6.9v-1.3h-14.2l-27.8,57.8l-30-57.8h-12.7v1.3c7.6,0.5,8.5,0.5,8.5,6.9v48.6
		c0,6.3-0.9,6.4-8.5,6.9V249.3L150.6,249.3z M243.9,249.3h22.7V248c-7.6-0.5-8.5-0.5-8.5-6.9v-24.9h13c12.8,0,22.5-5.8,22.5-15.9
		c0-10-9.6-16-21.9-16h-27.8v1.3c7.6,0.5,8.5,0.5,8.5,6.9v48.6c0,6.3-0.9,6.4-8.5,6.9L243.9,249.3L243.9,249.3z M258.1,185.9h11.6
		c11.3,0,17.5,5.3,17.5,14.4c0,9.1-6.3,14.2-17.2,14.3l-11.8,0.1C258.1,214.7,258.1,185.9,258.1,185.9z M288.2,249.3h17.6V248
		c-7.7-0.4-8.2-0.9-3.8-12.6l3.5-9.3h32.9l6,15.7c1.8,4.9,1,6.1-6.5,6.3v1.3h21.5V248c-6.4-0.3-6.8-0.8-9.1-6.6l-20.9-53.6
		c-1.1-2.7-2.8-4.6-5.8-4.6c-3.8,0-5,3.2-5.5,4.4l-18.6,48.7c-4.2,10.9-4.8,11.4-11.4,11.7L288.2,249.3L288.2,249.3z M306.2,224.4
		l13.9-36.4c0.5-1.2,0.9-1.9,1.8-1.9c1.2,0,1.5,1.1,1.8,2l14,36.4C337.8,224.4,306.2,224.4,306.2,224.4z M363,249.3h18.9V248
		c-7.6-0.5-8.5-0.5-8.5-6.9v-50.5l47.7,58.7h1.8v-56.8c0-6.3,0.9-6.4,8.5-6.9v-1.3h-18.9v1.3c7.6,0.5,8.5,0.5,8.5,6.9V240
		l-45.2-55.6H363v1.3c7.6,0.5,8.5,0.5,8.5,6.9v48.6c0,6.3-0.9,6.4-8.5,6.9L363,249.3L363,249.3z M434.1,185.7c3.5,0.2,6.2,0.8,9,4.7
		l22,30.8v19.9c0,6.3-0.9,6.4-8.5,6.9v1.3h22.7V248c-7.6-0.5-8.5-0.5-8.5-6.9v-20.9l17.4-25.1c6.1-8.7,6.8-9.2,12.3-9.5v-1.3h-16.8
		v1.3c7.7,0.2,8.2,0.9,1.4,10.8L470,218.3l-18.4-25.8c-1.6-2.3-2.6-3.7-2.6-4.7c0-1.4,1.8-1.9,6.7-2.1v-1.3h-21.5L434.1,185.7
		L434.1,185.7z"/>
</g>
</svg>
